<svg version="1.1" id="Layer_1" xmlns="http://www.w3.org/2000/svg" xmlns:xlink="http://www.w3.org/1999/xlink" x="0px" y="0px"
	 width="100%" viewBox="0 0 256 256" enable-background="new 0 0 256 256" xml:space="preserve">
<path fill="#121F30" opacity="1.000000" stroke="none" 
	d="
M168.000000,257.000000 
	C112.000000,257.000000 56.500008,257.000000 1.000007,257.000000 
	C1.000005,171.666672 1.000005,86.333351 1.000003,1.000019 
	C86.333321,1.000013 171.666641,1.000013 257.000000,1.000006 
	C257.000000,86.333313 257.000000,171.666626 257.000000,256.999969 
	C227.500000,257.000000 198.000000,257.000000 168.000000,257.000000 
M191.682419,47.949280 
	C191.789795,54.768818 191.897171,61.588360 191.852158,69.411530 
	C191.799347,79.207993 191.687454,89.004555 191.705246,98.800888 
	C191.751984,124.533691 191.855209,150.266388 191.712997,176.733170 
	C191.467133,182.106201 188.562820,185.681580 183.226105,188.153793 
	C180.483002,188.167435 177.739883,188.181076 174.382828,187.864914 
	C169.172623,185.162552 166.901413,181.153610 166.975296,175.021393 
	C167.248138,152.375000 167.070175,129.723175 167.061874,107.073402 
	C167.061157,105.116669 167.061783,103.159943 167.061783,101.176689 
	C165.355789,101.176689 164.203476,101.176689 162.134659,100.934715 
	C155.050385,100.934715 147.966110,100.934715 140.450974,100.934715 
	C140.450974,108.639992 140.450974,115.877007 140.276520,124.021729 
	C140.249496,130.314468 140.154190,136.607773 140.208298,142.899826 
	C140.366257,161.265961 140.583878,179.631592 140.597885,198.772491 
	C142.911102,206.667633 150.392838,213.462433 158.038803,213.600677 
	C172.198669,213.856689 186.379349,213.944550 200.529221,213.458496 
	C211.779831,213.072021 218.117188,205.893005 218.194229,194.719223 
	C218.239044,188.219604 218.202438,181.719452 218.205795,175.219528 
	C218.225433,137.220139 218.259048,99.220741 218.249496,61.221352 
	C218.248337,56.606441 218.814514,51.724979 213.705246,48.065914 
	C206.839249,43.649647 199.443298,44.822906 191.718704,46.482727 
	C191.771255,46.666332 191.823807,46.849934 191.682419,47.949280 
M66.200005,150.160156 
	C66.135933,148.440048 66.071854,146.719925 66.223976,144.087631 
	C66.161217,139.057968 66.098457,134.028305 66.261948,128.084854 
	C66.187698,112.389282 66.113441,96.693703 66.264328,80.084244 
	C66.264328,68.638329 66.264328,57.192413 66.264328,45.088795 
	C62.105465,45.088795 58.317093,45.079266 54.528786,45.090687 
	C45.307255,45.118484 39.338570,50.529324 39.138878,59.745136 
	C38.901012,70.722214 39.166679,81.710213 39.069141,93.585587 
	C39.118320,107.391777 39.167500,121.197975 39.066345,135.930298 
	C39.117950,144.954865 39.169556,153.979431 39.066463,163.929352 
	C39.058884,174.316589 38.569458,184.736542 39.271606,195.075577 
	C39.568741,199.450806 42.371056,203.655899 44.416031,208.515671 
	C48.890606,211.993988 53.906445,213.532990 59.623707,213.464005 
	C71.724869,213.317947 83.830185,213.386658 95.932465,213.504562 
	C105.772369,213.600418 112.832352,209.751724 116.319305,199.708435 
	C116.365105,199.292526 116.410912,198.876617 116.400688,197.661606 
	C116.383583,190.039261 116.301544,182.416382 116.365829,174.794724 
	C116.445724,165.321899 116.618660,155.849533 116.813232,146.378235 
	C116.867249,143.748932 116.786674,141.479767 112.214096,142.394440 
	C104.959846,142.394440 97.705597,142.394440 90.184418,142.394440 
	C90.184418,149.895065 90.184418,156.969788 90.017662,164.961029 
	C90.011429,169.084854 90.043106,173.209183 89.990356,177.332413 
	C89.904495,184.044388 84.442741,189.627792 77.918732,188.736862 
	C74.539955,188.275467 71.415718,185.950043 68.007133,183.763443 
	C67.382736,181.262405 66.307632,178.777420 66.217941,176.257355 
	C65.942245,168.512115 66.043831,160.753448 66.201607,152.343338 
	C66.133057,151.895523 66.064507,151.447693 66.200005,150.160156 
M139.795685,86.602959 
	C139.795685,84.160316 139.795685,81.717682 139.795685,78.758774 
	C131.899597,78.758774 124.684471,78.758774 117.270973,78.758774 
	C117.270973,85.838432 117.270973,92.715927 117.270973,99.741669 
	C124.841522,99.741669 132.063202,99.741669 139.796371,99.741669 
	C139.796371,95.482994 139.796371,91.524773 139.795685,86.602959 
z"/>
<path fill="#F7F7F8" opacity="1.000000" stroke="none" 
	d="
M191.935944,175.999130 
	C191.855209,150.266388 191.751984,124.533691 191.705246,98.800888 
	C191.687454,89.004555 191.799347,79.207993 192.208832,69.200409 
	C195.159149,67.242683 198.103912,65.847366 200.274796,63.677738 
	C205.078903,58.876438 209.494034,53.685928 214.067825,48.654167 
	C218.814514,51.724979 218.248337,56.606441 218.249496,61.221352 
	C218.259048,99.220741 218.225433,137.220139 218.205795,175.219528 
	C218.202438,181.719452 218.239044,188.219604 218.194229,194.719223 
	C218.117188,205.893005 211.779831,213.072021 200.529221,213.458496 
	C186.379349,213.944550 172.198669,213.856689 158.038803,213.600677 
	C150.392838,213.462433 142.911102,206.667633 141.039429,198.449799 
	C145.039093,201.888657 148.182236,206.319321 154.610428,203.217819 
	C156.563904,202.275299 158.782700,202.872208 159.153778,206.080978 
	C159.277237,207.148499 161.244598,208.920715 162.123199,208.784561 
	C163.760315,208.530884 165.496857,207.368561 166.654144,206.095474 
	C167.470673,205.197235 167.399628,203.492142 168.040314,200.842789 
	C172.119141,206.031784 176.121216,206.658875 180.436234,203.150787 
	C180.650284,202.976746 181.113297,202.963959 181.406342,203.053329 
	C188.020630,205.070618 191.349823,198.941299 196.304077,196.874756 
	C197.585892,196.340073 198.656815,193.924637 198.788742,192.289551 
	C199.079803,188.682007 198.676453,185.021790 198.621017,181.382080 
	C198.552261,176.867569 196.182297,175.287048 191.935944,175.999130 
z"/>
<path fill="#F9F9F9" opacity="1.000000" stroke="none" 
	d="
M191.824463,176.366150 
	C196.182297,175.287048 198.552261,176.867569 198.621017,181.382080 
	C198.676453,185.021790 199.079803,188.682007 198.788742,192.289551 
	C198.656815,193.924637 197.585892,196.340073 196.304077,196.874756 
	C191.349823,198.941299 188.020630,205.070618 181.406342,203.053329 
	C181.113297,202.963959 180.650284,202.976746 180.436234,203.150787 
	C176.121216,206.658875 172.119141,206.031784 168.040314,200.842789 
	C167.399628,203.492142 167.470673,205.197235 166.654144,206.095474 
	C165.496857,207.368561 163.760315,208.530884 162.123199,208.784561 
	C161.244598,208.920715 159.277237,207.148499 159.153778,206.080978 
	C158.782700,202.872208 156.563904,202.275299 154.610428,203.217819 
	C148.182236,206.319321 145.039093,201.888657 141.129547,198.062256 
	C140.583878,179.631592 140.366257,161.265961 140.208298,142.899826 
	C140.154190,136.607773 140.249496,130.314468 140.680176,123.505508 
	C146.307663,118.199379 151.617844,113.498932 156.716629,108.579399 
	C159.043152,106.334671 160.952560,103.657639 163.051163,101.176689 
	C164.203476,101.176689 165.355789,101.176689 167.061783,101.176689 
	C167.061783,103.159943 167.061157,105.116669 167.061874,107.073402 
	C167.070175,129.723175 167.248138,152.375000 166.975296,175.021393 
	C166.901413,181.153610 169.172623,185.162552 174.692291,188.403290 
	C175.022263,192.836456 177.461777,194.838394 180.867142,194.640961 
	C184.944550,194.404572 183.827988,190.758148 184.001846,188.136703 
	C188.562820,185.681580 191.467133,182.106201 191.824463,176.366150 
z"/>
<path fill="#F8F8F8" opacity="1.000000" stroke="none" 
	d="
M113.115242,142.717819 
	C116.786674,141.479767 116.867249,143.748932 116.813232,146.378235 
	C116.618660,155.849533 116.445724,165.321899 116.365829,174.794724 
	C116.301544,182.416382 116.383583,190.039261 116.228378,198.427078 
	C116.041321,199.469559 116.026581,199.746567 116.011833,200.023560 
	C112.832352,209.751724 105.772369,213.600418 95.932465,213.504562 
	C83.830185,213.386658 71.724869,213.317947 59.623707,213.464005 
	C53.906445,213.532990 48.890606,211.993988 44.435646,207.977966 
	C49.156281,203.271515 53.983353,199.234344 58.517067,194.890945 
	C61.931728,191.619614 64.970428,187.955841 68.176483,184.466751 
	C71.415718,185.950043 74.539955,188.275467 77.918732,188.736862 
	C84.442741,189.627792 89.904495,184.044388 89.990356,177.332413 
	C90.043106,173.209183 90.011429,169.084854 90.430618,164.441437 
	C98.267471,156.853836 105.691360,149.785828 113.115242,142.717819 
z"/>
<path fill="#D5D6D5" opacity="1.000000" stroke="none" 
	d="
M39.216682,135.004166 
	C39.167500,121.197975 39.118320,107.391777 39.534851,93.236649 
	C44.008755,95.352631 47.064514,94.871002 48.990425,90.183228 
	C49.402943,89.179153 50.277184,88.079300 51.226044,87.629005 
	C56.112240,85.310158 61.092056,83.188576 66.039192,80.998138 
	C66.113441,96.693703 66.187698,112.389282 65.784790,128.597778 
	C62.311535,130.206024 59.363255,131.467850 56.304848,132.346191 
	C53.658428,133.106186 50.276905,132.630554 48.309719,134.130173 
	C45.132484,136.552246 42.462482,136.865540 39.216682,135.004166 
z"/>
<path fill="#D0D0D0" opacity="1.000000" stroke="none" 
	d="
M66.151764,80.541191 
	C61.092056,83.188576 56.112240,85.310158 51.226044,87.629005 
	C50.277184,88.079300 49.402943,89.179153 48.990425,90.183228 
	C47.064514,94.871002 44.008755,95.352631 39.607376,92.790588 
	C39.166679,81.710213 38.901012,70.722214 39.138878,59.745136 
	C39.338570,50.529324 45.307255,45.118484 54.528786,45.090687 
	C58.317093,45.079266 62.105465,45.088795 66.264328,45.088795 
	C66.264328,57.192413 66.264328,68.638329 66.151764,80.541191 
z"/>
<path fill="#DCDCDC" opacity="1.000000" stroke="none" 
	d="
M68.091805,184.115097 
	C64.970428,187.955841 61.931728,191.619614 58.517067,194.890945 
	C53.983353,199.234344 49.156281,203.271515 44.244987,207.689301 
	C42.371056,203.655899 39.568741,199.450806 39.271606,195.075577 
	C38.569458,184.736542 39.058884,174.316589 39.521114,163.485519 
	C41.506767,165.170364 43.037766,167.299026 44.869465,169.845795 
	C45.252289,168.887527 46.015965,167.926117 45.914463,167.066910 
	C45.454842,163.176407 47.312435,161.466248 50.876488,160.471268 
	C54.607037,159.429825 56.779922,160.637360 58.521011,163.883850 
	C60.097973,166.824341 62.282192,166.661621 64.495132,164.359161 
	C64.542694,164.388443 64.454231,164.655426 64.353149,164.221802 
	C63.923191,160.044601 61.450317,155.953888 65.998772,153.000000 
	C66.043831,160.753448 65.942245,168.512115 66.217941,176.257355 
	C66.307632,178.777420 67.382736,181.262405 68.091805,184.115097 
z"/>
<path fill="#D9DAD9" opacity="1.000000" stroke="none" 
	d="
M66.100189,152.671661 
	C61.450317,155.953888 63.923191,160.044601 64.241753,164.140518 
	C64.231430,164.492859 64.447578,164.329880 64.447578,164.329880 
	C62.282192,166.661621 60.097973,166.824341 58.521011,163.883850 
	C56.779922,160.637360 54.607037,159.429825 50.876488,160.471268 
	C47.312435,161.466248 45.454842,163.176407 45.914463,167.066910 
	C46.015965,167.926117 45.252289,168.887527 44.869465,169.845795 
	C43.037766,167.299026 41.506767,165.170364 39.598465,163.022842 
	C39.169556,153.979431 39.117950,144.954865 39.141514,135.467224 
	C42.462482,136.865540 45.132484,136.552246 48.309719,134.130173 
	C50.276905,132.630554 53.658428,133.106186 56.304848,132.346191 
	C59.363255,131.467850 62.311535,130.206024 65.671669,129.054688 
	C66.098457,134.028305 66.161217,139.057968 65.764755,144.643280 
	C63.512737,147.373352 62.852669,149.412949 65.995956,150.999878 
	C66.064507,151.447693 66.133057,151.895523 66.100189,152.671661 
z"/>
<path fill="#848482" opacity="1.000000" stroke="none" 
	d="
M139.796021,87.084755 
	C139.796371,91.524773 139.796371,95.482994 139.796371,99.741669 
	C132.063202,99.741669 124.841522,99.741669 117.270973,99.741669 
	C117.270973,92.715927 117.270973,85.838432 117.270973,78.758774 
	C124.684471,78.758774 131.899597,78.758774 139.795685,78.758774 
	C139.795685,81.717682 139.795685,84.160316 139.796021,87.084755 
z"/>
<path fill="#D1D1D1" opacity="1.000000" stroke="none" 
	d="
M213.886536,48.360039 
	C209.494034,53.685928 205.078903,58.876438 200.274796,63.677738 
	C198.103912,65.847366 195.159149,67.242683 192.285019,68.698593 
	C191.897171,61.588360 191.789795,54.768818 191.926422,47.398643 
	C192.243881,46.760643 192.396835,46.641556 192.376846,46.591465 
	C192.295273,46.386959 192.160812,46.203545 192.045822,46.012360 
	C199.443298,44.822906 206.839249,43.649647 213.886536,48.360039 
z"/>
<path fill="#D1D1D2" opacity="1.000000" stroke="none" 
	d="
M112.664673,142.556122 
	C105.691360,149.785828 98.267471,156.853836 90.514000,163.983185 
	C90.184418,156.969788 90.184418,149.895065 90.184418,142.394440 
	C97.705597,142.394440 104.959846,142.394440 112.664673,142.556122 
z"/>
<path fill="#C9CACB" opacity="1.000000" stroke="none" 
	d="
M162.592911,101.055702 
	C160.952560,103.657639 159.043152,106.334671 156.716629,108.579399 
	C151.617844,113.498932 146.307663,118.199379 140.767395,123.051651 
	C140.450974,115.877007 140.450974,108.639992 140.450974,100.934715 
	C147.966110,100.934715 155.050385,100.934715 162.592911,101.055702 
z"/>
<path fill="#F7F7F8" opacity="1.000000" stroke="none" 
	d="
M183.613983,188.145248 
	C183.827988,190.758148 184.944550,194.404572 180.867142,194.640961 
	C177.461777,194.838394 175.022263,192.836456 174.999268,188.568192 
	C177.739883,188.181076 180.483002,188.167435 183.613983,188.145248 
z"/>
<path fill="#DCDCDC" opacity="1.000000" stroke="none" 
	d="
M66.097977,150.580017 
	C62.852669,149.412949 63.512737,147.373352 65.656654,145.099365 
	C66.071854,146.719925 66.135933,148.440048 66.097977,150.580017 
z"/>
<path fill="#E1E0E1" opacity="1.000000" stroke="none" 
	d="
M191.882263,46.247543 
	C192.160812,46.203545 192.295273,46.386959 192.376846,46.591465 
	C192.396835,46.641556 192.243881,46.760643 192.023392,46.940773 
	C191.823807,46.849934 191.771255,46.666332 191.882263,46.247543 
z"/>
<path fill="#D1D1D2" opacity="1.000000" stroke="none" 
	d="
M116.165573,199.865997 
	C116.026581,199.746567 116.041321,199.469559 116.256393,198.826630 
	C116.410912,198.876617 116.365105,199.292526 116.165573,199.865997 
z"/>
<path fill="#121F30" opacity="1.000000" stroke="none" 
	d="
M64.495132,164.359161 
	C64.447578,164.329880 64.231430,164.492859 64.342834,164.574142 
	C64.454231,164.655426 64.542694,164.388443 64.495132,164.359161 
z"/>
</svg>